<svg width="164" height="29" viewBox="0 0 164 29" fill="none" xmlns="http://www.w3.org/2000/svg">
<path opacity="0.9" d="M13.0749 6.13788C13.4577 5.37226 14.5423 5.40416 14.8932 6.13788L16.9987 10.3807L21.6563 11.0506C22.4857 11.1782 22.8047 12.1991 22.1986 12.8052L18.849 16.091L19.6465 20.7167C19.7741 21.5461 18.8809 22.1841 18.1471 21.8013L14 19.6001L9.82097 21.8013C9.08724 22.1841 8.19402 21.5461 8.32162 20.7167L9.11915 16.091L5.76954 12.8052C5.16342 12.1991 5.48243 11.1782 6.31185 11.0506L11.0013 10.3807L13.0749 6.13788Z" fill="#FF9A60"/>
<path opacity="0.9" d="M47.0749 6.13788C47.4577 5.37226 48.5423 5.40416 48.8932 6.13788L50.9987 10.3807L55.6563 11.0506C56.4857 11.1782 56.8047 12.1991 56.1986 12.8052L52.849 16.091L53.6465 20.7167C53.7741 21.5461 52.8809 22.1841 52.1471 21.8013L48 19.6001L43.821 21.8013C43.0872 22.1841 42.194 21.5461 42.3216 20.7167L43.1191 16.091L39.7695 12.8052C39.1634 12.1991 39.4824 11.1782 40.3119 11.0506L45.0013 10.3807L47.0749 6.13788Z" fill="#FF9A60"/>
<path opacity="0.9" d="M81.0749 6.13788C81.4577 5.37226 82.5423 5.40416 82.8932 6.13788L84.9987 10.3807L89.6563 11.0506C90.4857 11.1782 90.8047 12.1991 90.1986 12.8052L86.849 16.091L87.6465 20.7167C87.7741 21.5461 86.8809 22.1841 86.1471 21.8013L82 19.6001L77.821 21.8013C77.0872 22.1841 76.194 21.5461 76.3216 20.7167L77.1191 16.091L73.7695 12.8052C73.1634 12.1991 73.4824 11.1782 74.3119 11.0506L79.0013 10.3807L81.0749 6.13788Z" fill="#FF9A60"/>
<path opacity="0.9" d="M115.075 6.13788C115.458 5.37226 116.542 5.40416 116.893 6.13788L118.999 10.3807L123.656 11.0506C124.486 11.1782 124.805 12.1991 124.199 12.8052L120.849 16.091L121.646 20.7167C121.774 21.5461 120.881 22.1841 120.147 21.8013L116 19.6001L111.821 21.8013C111.087 22.1841 110.194 21.5461 110.322 20.7167L111.119 16.091L107.77 12.8052C107.163 12.1991 107.482 11.1782 108.312 11.0506L113.001 10.3807L115.075 6.13788Z" fill="#FF9A60"/>
<path opacity="0.9" d="M149.075 6.13788C149.458 5.37226 150.542 5.40416 150.893 6.13788L152.999 10.3807L157.656 11.0506C158.486 11.1782 158.805 12.1991 158.199 12.8052L154.849 16.091L155.646 20.7167C155.774 21.5461 154.881 22.1841 154.147 21.8013L150 19.6001L145.821 21.8013C145.087 22.1841 144.194 21.5461 144.322 20.7167L145.119 16.091L141.77 12.8052C141.163 12.1991 141.482 11.1782 142.312 11.0506L147.001 10.3807L149.075 6.13788Z" fill="#FF9A60"/>
</svg>
